<svg xmlns="http://www.w3.org/2000/svg" viewBox="0 0 2478 233.7"><defs><style>.cls-1{fill:#e04d00;}.cls-2{fill:#fff;}</style></defs><g id="Layer_2" data-name="Layer 2"><g id="Layer_1-2" data-name="Layer 1"><rect class="cls-1" width="2478" height="233.7" rx="21.94"/><path class="cls-2" d="M1075.79,147.14a9.49,9.49,0,0,1-1.92,1.08,12.25,12.25,0,0,1-5.16,1,10.93,10.93,0,0,1-5.6-1.46,10.35,10.35,0,0,1-3.93-3.95,11.79,11.79,0,0,1-1.39-5.8,11.48,11.48,0,0,1,1.39-5.76,10.18,10.18,0,0,1,3.87-3.86,11.23,11.23,0,0,1,5.66-1.4,13.28,13.28,0,0,1,5,.86,10.72,10.72,0,0,1,2.1,1.15,33.81,33.81,0,0,1,4.06-9.7c.53-.86,1.1-1.71,1.71-2.51a19.9,19.9,0,0,0-2.74-1.35,26.07,26.07,0,0,0-10.1-1.89,27.3,27.3,0,0,0-13.24,3.2,24.38,24.38,0,0,0-9.33,8.74,23.48,23.48,0,0,0-3.43,12.61,23.82,23.82,0,0,0,12.67,21.36,27.09,27.09,0,0,0,13.14,3.19,26.15,26.15,0,0,0,10.34-2,25.67,25.67,0,0,0,2.67-1.35q-.93-1.26-1.74-2.61A33.8,33.8,0,0,1,1075.79,147.14Z"/><path class="cls-2" d="M1118,116.77a26.8,26.8,0,0,0-13.15-3.19,26.44,26.44,0,0,0-13.14,3.24,24.64,24.64,0,0,0-9.18,8.74,23.33,23.33,0,0,0-3.39,12.47,23.83,23.83,0,0,0,3.39,12.57,24.36,24.36,0,0,0,9.23,8.84,28.18,28.18,0,0,0,26.24,0,24.88,24.88,0,0,0,5.86-4.57,40.25,40.25,0,0,1,0-33.56A24.74,24.74,0,0,0,1118,116.77Zm-3.82,27.11a9.37,9.37,0,0,1-3.72,4,10.92,10.92,0,0,1-5.61,1.4,10.73,10.73,0,0,1-5.51-1.4,9.73,9.73,0,0,1-3.77-4,13,13,0,0,1,0-11.55,9.79,9.79,0,0,1,3.77-3.91,11.57,11.57,0,0,1,11.07,0,9.94,9.94,0,0,1,3.72,3.86,11.77,11.77,0,0,1,1.35,5.75A12.72,12.72,0,0,1,1114.19,143.88Z"/><path class="cls-2" d="M1383.79,147.7a13.92,13.92,0,0,0-1.65-7.21,12.86,12.86,0,0,0-4.25-4.39,25,25,0,0,0-5.51-2.61q-2.89-1-5.51-1.64a20.22,20.22,0,0,1-4.25-1.55A2.59,2.59,0,0,1,1361,128a2.3,2.3,0,0,1,1.25-2.08,7.79,7.79,0,0,1,3.77-.72,14.86,14.86,0,0,1,5.37,1.06,12.45,12.45,0,0,1,5,3.67l8.41-8.5a19.83,19.83,0,0,0-8.26-6.14,29,29,0,0,0-11.07-2.08,24,24,0,0,0-10,1.93,15.71,15.71,0,0,0-6.57,5.27,15.1,15.1,0,0,0-.68,14.89,12.08,12.08,0,0,0,4.25,4.3A24.78,24.78,0,0,0,1358,142c1.93.58,3.77,1.12,5.51,1.6a20.75,20.75,0,0,1,4.3,1.64,2.88,2.88,0,0,1,1.69,2.66,2.38,2.38,0,0,1-1.4,2.13,8.49,8.49,0,0,1-4,.77,17.21,17.21,0,0,1-7-1.4,16.5,16.5,0,0,1-5.51-3.92l-8.41,8.51a24.69,24.69,0,0,0,5.85,4.59,30.52,30.52,0,0,0,7.44,3,31.76,31.76,0,0,0,8.17,1.07q8.79,0,14-4.06A13.19,13.19,0,0,0,1383.79,147.7Z"/><path class="cls-2" d="M1196.87,125.9a7.79,7.79,0,0,1,3.77-.72,14.86,14.86,0,0,1,5.37,1.06,12.45,12.45,0,0,1,5,3.67l8.41-8.5a19.83,19.83,0,0,0-8.26-6.14,29,29,0,0,0-11.07-2.08,24,24,0,0,0-10,1.93,15.71,15.71,0,0,0-6.57,5.27,15.1,15.1,0,0,0-.68,14.89,12.16,12.16,0,0,0,4.25,4.3,24.78,24.78,0,0,0,5.51,2.41c1.94.58,3.77,1.12,5.51,1.6a20.75,20.75,0,0,1,4.3,1.64,2.88,2.88,0,0,1,1.69,2.66,2.38,2.38,0,0,1-1.4,2.13,8.49,8.49,0,0,1-4,.77,17.21,17.21,0,0,1-7-1.4,16.5,16.5,0,0,1-5.51-3.92l-8.41,8.51a24.69,24.69,0,0,0,5.85,4.59,30.52,30.52,0,0,0,7.44,3,31.76,31.76,0,0,0,8.17,1.07q8.79,0,14-4.06a13.19,13.19,0,0,0,5.17-10.92,13.92,13.92,0,0,0-1.65-7.21,12.86,12.86,0,0,0-4.25-4.39,24.81,24.81,0,0,0-5.51-2.61q-2.89-1-5.51-1.64a20.43,20.43,0,0,1-4.25-1.55,2.59,2.59,0,0,1-1.64-2.32A2.3,2.3,0,0,1,1196.87,125.9Z"/><polygon class="cls-2" points="1255.63 114.55 1245 114.55 1245 95.12 1230.22 95.12 1230.22 114.55 1219.59 114.55 1219.59 127.11 1230.22 127.11 1230.22 161.52 1245 161.52 1245 127.11 1255.63 127.11 1255.63 114.55"/><polygon class="cls-2" points="1344.93 114.55 1334.3 114.55 1334.3 95.12 1319.52 95.12 1319.52 114.55 1308.89 114.55 1308.89 127.11 1319.52 127.11 1319.52 161.52 1334.3 161.52 1334.3 127.11 1344.93 127.11 1344.93 114.55"/><path class="cls-2" d="M1400,130.73l-1-.4a44.14,44.14,0,0,1,.64,7.53,39.64,39.64,0,0,1-4.55,18.95c-.5.94-1,1.83-1.61,2.71l7,2.85c3,1.24,5.87-.13,6.31-3.66a60.07,60.07,0,0,0-1-22C1404.88,132.83,1401.87,131.51,1400,130.73Z"/><path class="cls-2" d="M1398.29,169.6l-9.79-4a35.7,35.7,0,0,1-6.32,5,34,34,0,0,1-9.6,4c-.37.82-.74,1.59-1.08,2.31H1402C1403.14,173.08,1400.11,170.34,1398.29,169.6Z"/><path class="cls-2" d="M1421.15,80.9c-1.81-4.3-4.65-5.46-4.65-5.46L1371.43,57.1c-2.39-1-8.15,0-10.11,4.82s1.08,8.79,4.48,10.18l3.52,1.43-18,28.24c8-.2,15.55-.39,16-.39a30.88,30.88,0,0,1,16.47,4.52,31.27,31.27,0,0,1,11.26,12c.46.86.87,1.76,1.25,2.66l3.36,1.36,2.12-12.1,10.91,4.44,18-11Z"/><path class="cls-2" d="M1434.26,113.89l-15.43,10c3.53,16.63-1.21,38.13-5.71,53h11.35C1440,131,1434.26,113.89,1434.26,113.89Z"/><path class="cls-2" d="M1160.05,117.94a17.84,17.84,0,0,0-3.77-2.33,20.48,20.48,0,0,0-8.69-1.84,22.12,22.12,0,0,0-11.84,3.19,22.46,22.46,0,0,0-8.12,8.7,28.23,28.23,0,0,0,0,25.13,22.46,22.46,0,0,0,8.12,8.7,22.12,22.12,0,0,0,11.84,3.19c.71,0,1.41-.05,2.1-.11l.67-.09c.31,0,.62-.1.93-.15.5-.09,1-.2,1.57-.35l.54-.15c.45-.13.92-.29,1.39-.46s.81-.32,1.2-.5l.72-.36.74-.42a13.46,13.46,0,0,0,6.19-8,53.74,53.74,0,0,1-2.68,9.57h13.69V91.83h-14.6Zm-.67,26.08a9.9,9.9,0,0,1-3.72,3.92,11.37,11.37,0,0,1-10.93,0A10,10,0,0,1,1141,144a12.06,12.06,0,0,1-1.35-5.8,11.88,11.88,0,0,1,1.35-5.7,10.09,10.09,0,0,1,9.28-5.41,10.27,10.27,0,0,1,5.41,1.45,9.81,9.81,0,0,1,3.73,4,12.33,12.33,0,0,1,1.3,5.7A12.06,12.06,0,0,1,1159.38,144Z"/><path class="cls-2" d="M1294,123.07a13.52,13.52,0,0,0-3.26-5.63,16.93,16.93,0,0,0-4.33-3,19.58,19.58,0,0,0-8.56-1.84,21.33,21.33,0,0,0-11.55,3.19,22.82,22.82,0,0,0-8,8.7,28.23,28.23,0,0,0,0,25.13,22.82,22.82,0,0,0,8,8.7,21.33,21.33,0,0,0,11.55,3.19,19.82,19.82,0,0,0,8.6-1.84,16.68,16.68,0,0,0,4.35-3v3.85h14.5v-47h-13.94A54.59,54.59,0,0,1,1294,123.07Zm-5.52,22a9.89,9.89,0,0,1-7.63,3.14,10.22,10.22,0,0,1-9.18-5.41,11.78,11.78,0,0,1-1.36-5.71,11.6,11.6,0,0,1,1.41-5.79,10.28,10.28,0,0,1,3.76-3.92,11.37,11.37,0,0,1,10.93,0,9.64,9.64,0,0,1,3.67,3.92,12.35,12.35,0,0,1,1.3,5.79A11.28,11.28,0,0,1,1288.49,145Z"/></g></g></svg>