<svg xmlns="http://www.w3.org/2000/svg" viewBox="0 0 246 246"><defs><style>.cls-1{fill:#e04d00;}.cls-2{fill:none;}</style></defs><g id="Layer_2" data-name="Layer 2"><g id="Layer_1-2" data-name="Layer 1"><path class="cls-1" d="M190.58,124.18l8.44,3.44c3.65,1.49,7.07-.17,7.59-4.41a72.47,72.47,0,0,0-1.2-26.43c-1.08-4.72-4.71-6.31-7-7.24l-1.18-.48a52.37,52.37,0,0,1,.77,9,47.82,47.82,0,0,1-5.47,22.82C191.92,122.05,191.26,123.13,190.58,124.18Z"/><path class="cls-1" d="M200.81,145.16c1.42-4.66-2.23-7.95-4.41-8.84l-11.79-4.8a42.76,42.76,0,0,1-7.61,6,41.25,41.25,0,0,1-11.55,4.86c-.45,1-.89,1.92-1.31,2.79h36.67Z"/><path class="cls-1" d="M159.05,54.21a37.2,37.2,0,0,1,19.83,5.43,37.72,37.72,0,0,1,13.55,14.49c.56,1,1,2.11,1.51,3.2L198,79l2.56-14.57,13.13,5.35,21.62-13.24L223.9,29.56c-2.18-5.18-5.59-6.57-5.59-6.57L164.06.9c-2.88-1.17-9.81,0-12.16,5.82S153.19,17.3,157.28,19l4.24,1.73-21.71,34C149.46,54.43,158.53,54.21,159.05,54.21Z"/><path class="cls-1" d="M214.25,145.16H227.9c18.67-55.29,11.78-75.89,11.78-75.89l-18.56,12C225.36,101.32,219.66,127.21,214.25,145.16Z"/><path class="cls-1" d="M18.91,122.64a36.39,36.39,0,0,1,4-2.61,40.1,40.1,0,0,1,14.58-4.88V84.39H50.81V68.62H37.47V44.24H18.91V68.62H5.57V84.39H18.91Z"/><path class="cls-1" d="M54.45,113.75a23,23,0,0,0,1.78,2.6A34.28,34.28,0,0,1,60.76,118a39.7,39.7,0,0,1,12.68,8.81l1.26,1.31a35.36,35.36,0,0,0,7.79.84A33.3,33.3,0,0,0,99,124.86a30.55,30.55,0,0,0,11.51-11.11,31.32,31.32,0,0,0,0-31.47A30.32,30.32,0,0,0,99,71.29a33.69,33.69,0,0,0-16.5-4A33.14,33.14,0,0,0,66,71.37a31,31,0,0,0-11.52,11A29.27,29.27,0,0,0,50.22,98,29.87,29.87,0,0,0,54.45,113.75ZM70.84,90.83a12.14,12.14,0,0,1,4.72-4.91,14.51,14.51,0,0,1,13.89,0,12.44,12.44,0,0,1,4.68,4.86,14.82,14.82,0,0,1,1.7,7.2,16.17,16.17,0,0,1-1.64,7.36,12,12,0,0,1-4.67,5,13.74,13.74,0,0,1-7,1.76,13.48,13.48,0,0,1-6.93-1.76,12.27,12.27,0,0,1-4.72-5,16.16,16.16,0,0,1,0-14.51Z"/><path class="cls-1" d="M36.62,154.39a7.53,7.53,0,0,1,8.13-8.13,8.29,8.29,0,0,1,6.31,2.55L62.7,137.16a24.65,24.65,0,0,0-7.94-5.52,26.13,26.13,0,0,0-10.62-2A27.39,27.39,0,0,0,30.31,133a23.59,23.59,0,0,0-9,9.1A26.09,26.09,0,0,0,18.06,155v5.1h-13v15.77h13v43.19H36.62V175.86h17V160.09h-17Z"/><path class="cls-1" d="M98.8,160.15a20.17,20.17,0,0,0-7.46-1.28,27.89,27.89,0,0,0-3.49.23,22.17,22.17,0,0,0-10.93,4.77c-.24.23-.49.44-.72.68A16.87,16.87,0,0,0,71.74,172a67.51,67.51,0,0,1,3.31-11.91H57.61v59H76.17V186.66q0-5.7,2.73-8.56a9.73,9.73,0,0,1,7.34-2.85,11.18,11.18,0,0,1,4.13.73,8.15,8.15,0,0,1,3,2.06l11-13.95A15.08,15.08,0,0,0,98.8,160.15Z"/><path class="cls-1" d="M138.65,145.12V123.57a22.53,22.53,0,0,0,4.73,2.93,25.63,25.63,0,0,0,10.92,2.3,27.69,27.69,0,0,0,14.86-4,28.14,28.14,0,0,0,10.19-10.92,32.88,32.88,0,0,0,3.71-15.77,32.88,32.88,0,0,0-3.71-15.77,28.14,28.14,0,0,0-10.19-10.92,27.7,27.7,0,0,0-14.86-4c-.9,0-1.78.06-2.65.14l-.83.11c-.4,0-.78.12-1.17.19-.62.11-1.28.25-2,.43l-.68.19c-.57.17-1.15.37-1.74.59s-1,.4-1.51.63q-.45.21-.9.45l-.94.52a16.87,16.87,0,0,0-7.76,10,67.38,67.38,0,0,1,3.36-12H120.33v76.1a45,45,0,0,1,8.37-.79A41.52,41.52,0,0,1,138.65,145.12Zm.85-54.29a12.41,12.41,0,0,1,4.67-4.91,14.23,14.23,0,0,1,13.71,0,12.41,12.41,0,0,1,4.67,4.91,15.14,15.14,0,0,1,1.7,7.28,14.88,14.88,0,0,1-1.7,7.16,12.85,12.85,0,0,1-4.67,5,13,13,0,0,1-7,1.82,12.89,12.89,0,0,1-6.79-1.82,12.29,12.29,0,0,1-4.67-5,15.32,15.32,0,0,1-1.64-7.16A15.14,15.14,0,0,1,139.5,90.83Z"/><path class="cls-1" d="M149,172a16.9,16.9,0,0,0-4.09-7.06,21.33,21.33,0,0,0-5.44-3.76,24.42,24.42,0,0,0-10.74-2.31,26.62,26.62,0,0,0-14.49,4,28.44,28.44,0,0,0-10.07,10.92,35.46,35.46,0,0,0,0,31.54,28.44,28.44,0,0,0,10.07,10.92,26.61,26.61,0,0,0,14.49,4,24.77,24.77,0,0,0,10.8-2.3,21,21,0,0,0,5.46-3.74v4.83h18.2v-59H145.65A67,67,0,0,1,149,172Zm-6.92,27.58a12.42,12.42,0,0,1-9.58,3.94,12.9,12.9,0,0,1-6.8-1.82,12.71,12.71,0,0,1-4.73-5,14.88,14.88,0,0,1-1.7-7.16,14.72,14.72,0,0,1,1.76-7.28,12.84,12.84,0,0,1,4.73-4.91,14.23,14.23,0,0,1,13.71,0,12,12,0,0,1,4.61,4.91,15.59,15.59,0,0,1,1.64,7.28A14.16,14.16,0,0,1,142.05,199.58Z"/><path class="cls-1" d="M217.38,172a16.83,16.83,0,0,0-5.21-8.14V164a20.39,20.39,0,0,0-4.55-2.9,25.23,25.23,0,0,0-10.86-2.25,27,27,0,0,0-24.38,14.26,32,32,0,0,0,0,29.66,27.77,27.77,0,0,0,10,10.56,27,27,0,0,0,14.43,3.88,24.92,24.92,0,0,0,10.8-2.3,21.63,21.63,0,0,0,4.25-2.65V216q0,6.18-3.94,9.58T197,229a21.48,21.48,0,0,1-9.53-1.94,22,22,0,0,1-7.09-5.7L169,232.76a27.81,27.81,0,0,0,11.59,9.4,40.7,40.7,0,0,0,17,3.34,36.71,36.71,0,0,0,16.87-3.76,29.31,29.31,0,0,0,11.65-10.43,28.77,28.77,0,0,0,4.24-15.78V160.09h-16.3A67.51,67.51,0,0,1,217.38,172Zm-6,22.48A11.48,11.48,0,0,1,207,199a14.19,14.19,0,0,1-13.47,0,11.65,11.65,0,0,1-4.43-4.67,13.39,13.39,0,0,1-1.58-6.37,13.56,13.56,0,0,1,1.58-6.55,11.7,11.7,0,0,1,4.49-4.61,14.07,14.07,0,0,1,13.41,0,11.38,11.38,0,0,1,4.36,4.61A13.87,13.87,0,0,1,212.9,188,13.49,13.49,0,0,1,211.38,194.48Z"/><rect class="cls-2" width="246" height="246"/></g></g></svg>